<mxfile host="app.diagrams.net" modified="2020-10-15T01:42:09.475Z" agent="5.0 (Windows NT 10.0; WOW64) AppleWebKit/537.36 (KHTML, like Gecko) Chrome/78.0.3904.108 Safari/537.36" etag="GVt4DbPTtAoz7wWCEXLE" version="13.8.0" type="github">
  <diagram id="0kANJm1IUDnJ0ima7EeY" name="第 1 页">
    <mxGraphModel dx="1822" dy="1305" grid="0" gridSize="10" guides="1" tooltips="1" connect="1" arrows="1" fold="1" page="0" pageScale="1" pageWidth="827" pageHeight="1169" math="0" shadow="0">
      <root>
        <mxCell id="0" />
        <mxCell id="1" parent="0" />
        <mxCell id="hOs8OLgjV98b7IrEy1Tw-46" value="" style="rounded=0;whiteSpace=wrap;html=1;" vertex="1" parent="1">
          <mxGeometry y="-67" width="546" height="875" as="geometry" />
        </mxCell>
        <mxCell id="hOs8OLgjV98b7IrEy1Tw-2" value="" style="rounded=0;whiteSpace=wrap;html=1;" vertex="1" parent="1">
          <mxGeometry x="46" y="-8" width="120" height="788" as="geometry" />
        </mxCell>
        <mxCell id="hOs8OLgjV98b7IrEy1Tw-3" value="" style="rounded=0;whiteSpace=wrap;html=1;" vertex="1" parent="1">
          <mxGeometry x="259" y="-7" width="245" height="788" as="geometry" />
        </mxCell>
        <mxCell id="hOs8OLgjV98b7IrEy1Tw-4" value="销售主管" style="text;html=1;strokeColor=none;fillColor=none;align=center;verticalAlign=middle;whiteSpace=wrap;rounded=0;" vertex="1" parent="1">
          <mxGeometry x="69" y="-44" width="70" height="20" as="geometry" />
        </mxCell>
        <mxCell id="hOs8OLgjV98b7IrEy1Tw-5" value="销售" style="text;html=1;strokeColor=none;fillColor=none;align=center;verticalAlign=middle;whiteSpace=wrap;rounded=0;" vertex="1" parent="1">
          <mxGeometry x="310" y="-40" width="40" height="20" as="geometry" />
        </mxCell>
        <mxCell id="hOs8OLgjV98b7IrEy1Tw-6" value="录入订单" style="rounded=0;whiteSpace=wrap;html=1;" vertex="1" parent="1">
          <mxGeometry x="59.5" y="47" width="89" height="43" as="geometry" />
        </mxCell>
        <mxCell id="hOs8OLgjV98b7IrEy1Tw-7" value="分配订单" style="rounded=0;whiteSpace=wrap;html=1;" vertex="1" parent="1">
          <mxGeometry x="60.5" y="161" width="90.5" height="43" as="geometry" />
        </mxCell>
        <mxCell id="hOs8OLgjV98b7IrEy1Tw-8" style="edgeStyle=orthogonalEdgeStyle;rounded=0;orthogonalLoop=1;jettySize=auto;html=1;dashed=1;" edge="1" parent="1" source="hOs8OLgjV98b7IrEy1Tw-7" target="hOs8OLgjV98b7IrEy1Tw-7">
          <mxGeometry relative="1" as="geometry" />
        </mxCell>
        <mxCell id="hOs8OLgjV98b7IrEy1Tw-9" value="重新分配" style="text;html=1;strokeColor=none;fillColor=none;align=center;verticalAlign=middle;whiteSpace=wrap;rounded=0;" vertex="1" parent="1">
          <mxGeometry x="181" y="173" width="55" height="20" as="geometry" />
        </mxCell>
        <mxCell id="hOs8OLgjV98b7IrEy1Tw-10" value="录入订单" style="rounded=0;whiteSpace=wrap;html=1;" vertex="1" parent="1">
          <mxGeometry x="280" y="47" width="89" height="43" as="geometry" />
        </mxCell>
        <mxCell id="hOs8OLgjV98b7IrEy1Tw-16" value="" style="endArrow=classic;html=1;entryX=0;entryY=0.5;entryDx=0;entryDy=0;exitX=0.5;exitY=1;exitDx=0;exitDy=0;" edge="1" parent="1" source="hOs8OLgjV98b7IrEy1Tw-7" target="hOs8OLgjV98b7IrEy1Tw-14">
          <mxGeometry width="50" height="50" relative="1" as="geometry">
            <mxPoint x="221" y="296" as="sourcePoint" />
            <mxPoint x="271" y="246" as="targetPoint" />
            <Array as="points">
              <mxPoint x="107" y="258" />
            </Array>
          </mxGeometry>
        </mxCell>
        <mxCell id="hOs8OLgjV98b7IrEy1Tw-17" value="" style="endArrow=classic;html=1;exitX=0.5;exitY=1;exitDx=0;exitDy=0;entryX=0.5;entryY=0;entryDx=0;entryDy=0;" edge="1" parent="1" source="hOs8OLgjV98b7IrEy1Tw-6" target="hOs8OLgjV98b7IrEy1Tw-7">
          <mxGeometry width="50" height="50" relative="1" as="geometry">
            <mxPoint x="102" y="139" as="sourcePoint" />
            <mxPoint x="152" y="89" as="targetPoint" />
          </mxGeometry>
        </mxCell>
        <mxCell id="hOs8OLgjV98b7IrEy1Tw-24" value="" style="endArrow=classic;html=1;exitX=1;exitY=0.25;exitDx=0;exitDy=0;entryX=1;entryY=0.75;entryDx=0;entryDy=0;dashed=1;" edge="1" parent="1" source="hOs8OLgjV98b7IrEy1Tw-14" target="hOs8OLgjV98b7IrEy1Tw-14">
          <mxGeometry width="50" height="50" relative="1" as="geometry">
            <mxPoint x="383" y="284" as="sourcePoint" />
            <mxPoint x="433" y="234" as="targetPoint" />
            <Array as="points">
              <mxPoint x="404" y="247" />
              <mxPoint x="404" y="268" />
            </Array>
          </mxGeometry>
        </mxCell>
        <mxCell id="hOs8OLgjV98b7IrEy1Tw-25" value="移交" style="text;html=1;strokeColor=none;fillColor=none;align=center;verticalAlign=middle;whiteSpace=wrap;rounded=0;" vertex="1" parent="1">
          <mxGeometry x="406" y="245" width="55" height="20" as="geometry" />
        </mxCell>
        <mxCell id="hOs8OLgjV98b7IrEy1Tw-30" value="" style="endArrow=classic;html=1;exitX=0.5;exitY=1;exitDx=0;exitDy=0;" edge="1" parent="1" source="hOs8OLgjV98b7IrEy1Tw-10">
          <mxGeometry width="50" height="50" relative="1" as="geometry">
            <mxPoint x="329.5727408523353" y="90" as="sourcePoint" />
            <mxPoint x="325" y="695" as="targetPoint" />
          </mxGeometry>
        </mxCell>
        <mxCell id="hOs8OLgjV98b7IrEy1Tw-31" value="" style="ellipse;html=1;shape=endState;fillColor=#000000;strokeColor=#ff0000;" vertex="1" parent="1">
          <mxGeometry x="309" y="703" width="30" height="30" as="geometry" />
        </mxCell>
        <mxCell id="hOs8OLgjV98b7IrEy1Tw-32" value="Actor" style="shape=umlActor;verticalLabelPosition=bottom;verticalAlign=top;html=1;" vertex="1" parent="1">
          <mxGeometry x="-123" y="30" width="30" height="60" as="geometry" />
        </mxCell>
        <mxCell id="hOs8OLgjV98b7IrEy1Tw-38" value="" style="endArrow=classic;html=1;dashed=1;" edge="1" parent="1" target="hOs8OLgjV98b7IrEy1Tw-6">
          <mxGeometry width="50" height="50" relative="1" as="geometry">
            <mxPoint x="-80" y="70" as="sourcePoint" />
            <mxPoint x="-30" y="39" as="targetPoint" />
          </mxGeometry>
        </mxCell>
        <mxCell id="hOs8OLgjV98b7IrEy1Tw-39" value="用户下单" style="text;html=1;strokeColor=none;fillColor=none;align=center;verticalAlign=middle;whiteSpace=wrap;rounded=0;" vertex="1" parent="1">
          <mxGeometry x="-64" y="45" width="66" height="20" as="geometry" />
        </mxCell>
        <mxCell id="hOs8OLgjV98b7IrEy1Tw-40" value="阿里云&lt;br&gt;工商注册推送" style="ellipse;whiteSpace=wrap;html=1;aspect=fixed;" vertex="1" parent="1">
          <mxGeometry x="-150" y="128" width="80" height="80" as="geometry" />
        </mxCell>
        <mxCell id="hOs8OLgjV98b7IrEy1Tw-41" value="" style="endArrow=classic;html=1;dashed=1;exitX=1;exitY=0.5;exitDx=0;exitDy=0;entryX=0;entryY=0.75;entryDx=0;entryDy=0;" edge="1" parent="1" source="hOs8OLgjV98b7IrEy1Tw-40" target="hOs8OLgjV98b7IrEy1Tw-6">
          <mxGeometry width="50" height="50" relative="1" as="geometry">
            <mxPoint x="-70" y="80" as="sourcePoint" />
            <mxPoint x="69.5" y="78.8627717391305" as="targetPoint" />
          </mxGeometry>
        </mxCell>
        <mxCell id="hOs8OLgjV98b7IrEy1Tw-42" value="" style="endArrow=ERone;html=1;dashed=1;endFill=0;" edge="1" parent="1">
          <mxGeometry width="50" height="50" relative="1" as="geometry">
            <mxPoint x="336" y="291" as="sourcePoint" />
            <mxPoint x="336" y="684" as="targetPoint" />
            <Array as="points">
              <mxPoint x="418" y="291" />
              <mxPoint x="418" y="684" />
            </Array>
          </mxGeometry>
        </mxCell>
        <mxCell id="hOs8OLgjV98b7IrEy1Tw-43" value="阿里云云上园区支持退款" style="text;html=1;strokeColor=none;fillColor=none;align=center;verticalAlign=middle;whiteSpace=wrap;rounded=0;" vertex="1" parent="1">
          <mxGeometry x="432" y="428" width="40" height="20" as="geometry" />
        </mxCell>
        <mxCell id="hOs8OLgjV98b7IrEy1Tw-26" value="编辑商品" style="rounded=0;whiteSpace=wrap;html=1;" vertex="1" parent="1">
          <mxGeometry x="284.75" y="319" width="90.5" height="43" as="geometry" />
        </mxCell>
        <mxCell id="hOs8OLgjV98b7IrEy1Tw-27" value="绑定客户" style="rounded=0;whiteSpace=wrap;html=1;" vertex="1" parent="1">
          <mxGeometry x="284.75" y="391" width="90.5" height="43" as="geometry" />
        </mxCell>
        <mxCell id="hOs8OLgjV98b7IrEy1Tw-28" value="提炼线索" style="rounded=0;whiteSpace=wrap;html=1;" vertex="1" parent="1">
          <mxGeometry x="284.75" y="457" width="90.5" height="43" as="geometry" />
        </mxCell>
        <mxCell id="hOs8OLgjV98b7IrEy1Tw-29" value="创建合同" style="rounded=0;whiteSpace=wrap;html=1;" vertex="1" parent="1">
          <mxGeometry x="282.75" y="539" width="90.5" height="43" as="geometry" />
        </mxCell>
        <mxCell id="hOs8OLgjV98b7IrEy1Tw-14" value="跟进订单" style="rounded=0;whiteSpace=wrap;html=1;" vertex="1" parent="1">
          <mxGeometry x="280" y="236" width="90.5" height="43" as="geometry" />
        </mxCell>
        <mxCell id="hOs8OLgjV98b7IrEy1Tw-48" value="重新生成" style="text;html=1;strokeColor=none;fillColor=none;align=center;verticalAlign=middle;whiteSpace=wrap;rounded=0;sketch=0;fontColor=#1D3557;" vertex="1" parent="1">
          <mxGeometry x="186" y="550.5" width="53" height="20" as="geometry" />
        </mxCell>
        <mxCell id="hOs8OLgjV98b7IrEy1Tw-50" value="" style="endArrow=classic;html=1;strokeColor=#457B9D;fillColor=#A8DADC;fontColor=#1D3557;exitX=0;exitY=1;exitDx=0;exitDy=0;dashed=1;" edge="1" parent="1">
          <mxGeometry width="50" height="50" relative="1" as="geometry">
            <mxPoint x="284.75" y="578" as="sourcePoint" />
            <mxPoint x="279" y="545" as="targetPoint" />
            <Array as="points">
              <mxPoint x="240" y="578" />
              <mxPoint x="240" y="545" />
            </Array>
          </mxGeometry>
        </mxCell>
      </root>
    </mxGraphModel>
  </diagram>
</mxfile>
